<svg width="20" height="20" viewBox="0 0 20 20" fill="none" xmlns="http://www.w3.org/2000/svg">
<path d="M0.32038 8.59187C0.541855 6.73474 1.30145 4.98288 2.50569 3.55187C2.63894 3.39119 2.80425 3.2601 2.99106 3.16696C3.17787 3.07383 3.38206 3.02071 3.59057 3.01101C3.79908 3.0013 4.00732 3.03522 4.20198 3.11059C4.39663 3.18597 4.57341 3.30114 4.721 3.44875L7.31507 6.09812C7.56489 6.34737 7.71799 6.67731 7.74701 7.02901C7.77603 7.38072 7.67909 7.73129 7.4735 8.01812C7.31778 8.23904 7.2005 8.48468 7.12663 8.74468C7.10316 8.82139 7.05572 8.88856 6.99126 8.93632C6.9268 8.98407 6.84873 9.00989 6.7685 9.01L0.693505 9.01C0.640568 9.01008 0.588213 8.99896 0.539883 8.97736C0.491553 8.95576 0.448344 8.92417 0.413098 8.88468C0.377852 8.84518 0.351368 8.79867 0.335387 8.7482C0.319406 8.69773 0.314292 8.64446 0.32038 8.59187ZM10.8804 0.01562C10.6732 -0.00244747 10.4645 0.0227661 10.2676 0.0896594C10.0707 0.156553 9.88982 0.263664 9.73651 0.404191C9.5832 0.544719 9.46078 0.715591 9.37704 0.905957C9.2933 1.09632 9.25006 1.30202 9.25007 1.50999V5.32281C9.24748 5.6766 9.37113 6.01972 9.59881 6.29053C9.82649 6.56135 10.1433 6.74209 10.4923 6.80031C11.1494 6.90872 11.7518 7.23272 12.2044 7.72124C12.6571 8.20976 12.9344 8.83503 12.9925 9.49851C13.0506 10.162 12.8863 10.8259 12.5254 11.3857C12.1646 11.9455 11.6277 12.3693 10.9994 12.5903C10.9263 12.6172 10.8632 12.6658 10.8186 12.7297C10.774 12.7936 10.7501 12.8696 10.7501 12.9475L10.7501 19.0628C10.7497 19.1159 10.7606 19.1685 10.7821 19.217C10.8036 19.2656 10.8352 19.309 10.8747 19.3445C10.9142 19.3799 10.9608 19.4066 11.0114 19.4227C11.062 19.4388 11.1154 19.4439 11.1682 19.4378C13.5081 19.1489 15.6649 18.0247 17.2417 16.272C18.8185 14.5193 19.7093 12.256 19.7501 9.89874C19.8204 4.80906 15.9241 0.467495 10.8804 0.01562ZM8.99225 12.5875C8.57302 12.438 8.19232 12.197 7.87775 11.8821C7.56317 11.5672 7.32261 11.1863 7.1735 10.7669C7.14794 10.6925 7.09996 10.6279 7.03617 10.5819C6.97237 10.5359 6.8959 10.5108 6.81725 10.51L0.692567 10.51C0.639561 10.5097 0.587086 10.5206 0.538603 10.542C0.49012 10.5634 0.44673 10.5949 0.411295 10.6343C0.375859 10.6737 0.349184 10.7202 0.333028 10.7707C0.316872 10.8212 0.311603 10.8745 0.317567 10.9272C0.580173 13.0941 1.56166 15.1105 3.10514 16.654C4.64862 18.1975 6.66498 19.179 8.83194 19.4416C8.88461 19.4475 8.93795 19.4423 8.98843 19.4261C9.03892 19.4099 9.0854 19.3833 9.12483 19.3478C9.16425 19.3124 9.19571 19.269 9.21713 19.2205C9.23856 19.172 9.24946 19.1196 9.24913 19.0666L9.24913 12.9475C9.24928 12.8682 9.22459 12.7908 9.17852 12.7262C9.13244 12.6617 9.06731 12.6132 8.99225 12.5875Z" fill="#B3B3B3"/>
</svg>
