<svg width="20" height="17" viewBox="0 0 20 17" fill="none" xmlns="http://www.w3.org/2000/svg">
<path d="M18.25 0.51001L1.75 0.51001C1.35218 0.51001 0.970644 0.668045 0.68934 0.94935C0.408035 1.23065 0.25 1.61219 0.25 2.01001L0.25 16.26C0.250068 16.3878 0.282807 16.5135 0.345109 16.6251C0.407411 16.7368 0.497208 16.8306 0.605974 16.8978C0.71474 16.9649 0.838867 17.0032 0.966569 17.0089C1.09427 17.0146 1.22131 16.9875 1.33563 16.9303L4 15.5981L6.66437 16.9303C6.76857 16.9825 6.88348 17.0096 7 17.0096C7.11652 17.0096 7.23143 16.9825 7.33563 16.9303L10 15.5981L12.6644 16.9303C12.7686 16.9825 12.8835 17.0096 13 17.0096C13.1165 17.0096 13.2314 16.9825 13.3356 16.9303L16 15.5981L18.6644 16.9303C18.7787 16.9875 18.9057 17.0146 19.0334 17.0089C19.1611 17.0032 19.2853 16.9649 19.394 16.8978C19.5028 16.8306 19.5926 16.7368 19.6549 16.6251C19.7172 16.5135 19.7499 16.3878 19.75 16.26L19.75 2.01001C19.75 1.61219 19.592 1.23065 19.3107 0.94935C19.0294 0.668045 18.6478 0.51001 18.25 0.51001ZM14.5 10.26L5.5 10.26C5.30109 10.26 5.11032 10.181 4.96967 10.0403C4.82902 9.89969 4.75 9.70892 4.75 9.51001C4.75 9.3111 4.82902 9.12033 4.96967 8.97968C5.11032 8.83903 5.30109 8.76001 5.5 8.76001L14.5 8.76001C14.6989 8.76001 14.8897 8.83903 15.0303 8.97968C15.171 9.12033 15.25 9.3111 15.25 9.51001C15.25 9.70892 15.171 9.89969 15.0303 10.0403C14.8897 10.181 14.6989 10.26 14.5 10.26ZM14.5 7.26001L5.5 7.26001C5.30109 7.26001 5.11032 7.18099 4.96967 7.04034C4.82902 6.89969 4.75 6.70892 4.75 6.51001C4.75 6.3111 4.82902 6.12033 4.96967 5.97968C5.11032 5.83903 5.30109 5.76001 5.5 5.76001L14.5 5.76001C14.6989 5.76001 14.8897 5.83903 15.0303 5.97968C15.171 6.12033 15.25 6.3111 15.25 6.51001C15.25 6.70892 15.171 6.89969 15.0303 7.04034C14.8897 7.18099 14.6989 7.26001 14.5 7.26001Z" fill="#B3B3B3"/>
</svg>
