<svg width="18" height="18" viewBox="0 0 18 18" fill="none" xmlns="http://www.w3.org/2000/svg">
<path d="M8.19292 12.9731C8.24976 13.1102 8.2647 13.261 8.23583 13.4065C8.20696 13.552 8.13558 13.6857 8.03073 13.7906L5.03073 16.7906C4.96107 16.8604 4.87836 16.9157 4.78731 16.9534C4.69626 16.9912 4.59866 17.0106 4.5001 17.0106C4.40154 17.0106 4.30395 16.9912 4.2129 16.9534C4.12185 16.9157 4.03913 16.8604 3.96948 16.7906L0.969477 13.7906C0.864469 13.6858 0.792943 13.5521 0.763955 13.4065C0.734968 13.2609 0.749821 13.11 0.806635 12.9729C0.86345 12.8358 0.95967 12.7186 1.08312 12.6362C1.20656 12.5538 1.35168 12.5099 1.5001 12.51H3.7501L3.7501 1.26002C3.7501 1.06111 3.82912 0.870342 3.96977 0.72969C4.11043 0.589038 4.30119 0.51002 4.5001 0.51002C4.69902 0.51002 4.88978 0.589038 5.03043 0.72969C5.17108 0.870342 5.2501 1.06111 5.2501 1.26002L5.2501 12.51L7.5001 12.51C7.64844 12.51 7.79343 12.5541 7.91675 12.6365C8.04007 12.7189 8.13618 12.8361 8.19292 12.9731ZM17.0307 3.72939L14.0307 0.729395C13.9611 0.659663 13.8784 0.604344 13.7873 0.5666C13.6963 0.528857 13.5987 0.50943 13.5001 0.50943C13.4015 0.50943 13.3039 0.528857 13.2129 0.5666C13.1219 0.604344 13.0391 0.659663 12.9695 0.729395L9.96948 3.72939C9.86447 3.83429 9.79294 3.96798 9.76396 4.11354C9.73497 4.2591 9.74982 4.41 9.80664 4.54711C9.86345 4.68423 9.95967 4.80141 10.0831 4.88381C10.2066 4.96621 10.3517 5.01014 10.5001 5.01002H12.7501L12.7501 16.26C12.7501 16.4589 12.8291 16.6497 12.9698 16.7903C13.1104 16.931 13.3012 17.01 13.5001 17.01C13.699 17.01 13.8898 16.931 14.0304 16.7903C14.1711 16.6497 14.2501 16.4589 14.2501 16.26L14.2501 5.01002L16.5001 5.01002C16.6485 5.01014 16.7936 4.96621 16.9171 4.88381C17.0405 4.80141 17.1368 4.68423 17.1936 4.54711C17.2504 4.41 17.2652 4.2591 17.2362 4.11354C17.2073 3.96798 17.1357 3.83429 17.0307 3.72939Z" fill="#B3B3B3"/>
</svg>
