<?xml version="1.0" encoding="UTF-8"?>
<!DOCTYPE svg PUBLIC "-//W3C//DTD SVG 1.0//EN" "http://www.w3.org/TR/2001/REC-SVG-20010904/DTD/svg10.dtd">
<!-- Creator: CorelDRAW X7 -->
<svg xmlns="http://www.w3.org/2000/svg" xml:space="preserve" width="113.106mm" height="101.167mm" version="1.0" style="shape-rendering:geometricPrecision; text-rendering:geometricPrecision; image-rendering:optimizeQuality; fill-rule:evenodd; clip-rule:evenodd"
viewBox="0 0 661405 591592"
 xmlns:xlink="http://www.w3.org/1999/xlink">
 <defs>
  <style type="text/css">
   <![CDATA[
    .fil0 {fill:#277C78}
   ]]>
  </style>
 </defs>
 <g id="Layer_x0020_1">
  <metadata id="CorelCorpID_0Corel-Layer"/>
  <g id="_639337584">
   <path class="fil0" d="M193708 541959c-168,-267 -273,-694 -354,-881 -84,-189 -260,-644 -364,-875l-1218 -2494c-1181,-1800 -741,-1253 -2416,-2535l-12966 -8067c-201,-158 -481,-397 -684,-554l-2062 -1650c-1788,-1329 -1008,-722 -2940,-2008 -18844,-12522 -41641,-32674 -54781,-50395 -5447,-7351 -12975,-14127 -7754,-14106 3109,13 5076,4374 7296,7138 1879,2341 3213,3954 5126,6010l23395 23990c6724,7932 16355,14827 24630,20789l2744 2204c6198,5053 14509,11709 22348,13534 0,-3368 211,-5823 -1908,-7986 -3268,-3335 -34210,-21409 -49517,-38338l-1681 -2030c-5930,-7071 -21484,-20408 -23609,-28360 7612,-634 15539,-3558 22817,-5645l65036 -17866c12570,8417 26715,24882 42072,28460l0 -9900c-5972,-1390 -28071,-16757 -30936,-21036 9536,2549 20823,16770 32171,19798 -228,-10342 -16456,-10958 -24747,-22271 5048,-421 15983,-4048 21570,-5653 7249,-2078 14078,-3560 20752,-5230 12146,-3042 30366,-9647 41637,-11570 14654,-2504 65083,-17610 84321,-22092 -656,-2820 -958,-2845 -1238,-6186 193,220 430,557 544,691l4408 4257c8130,-1894 15025,-4339 23245,-6450l69555 -18297c-1463,17589 -32127,55484 -46334,67501 -6240,5280 -16020,9974 -20485,16639 5437,3641 1484,1674 8665,0 -2955,4031 -6610,5609 -10694,7770 -13642,7215 -26285,13040 -41282,16971 -5903,1546 -14297,4806 -21029,4956 1267,5989 976,1744 0,3710 -4633,-3394 -83,-3002 -5478,-3023 -17109,-60 -21955,4127 -48686,-406 -4602,-782 -772,-1045 -6467,-1519 440,5272 502,9666 6039,9554l9100 985c4031,750 5520,-1206 9147,-288 4994,1263 8403,897 14074,888 8282,-7 17039,-357 24864,-2227 2714,-648 -193,-246 2287,-510l23580 -4691c-657,-2818 -960,-2844 -1238,-6186 1878,2162 1678,1535 2475,4951 10821,-2523 22035,-10002 32324,-12422l-1391 -4903c4570,3061 3373,3047 8428,-110l35345 -27881c8434,-9123 15824,-17548 22799,-27935 6884,-10244 13025,-21615 17585,-33147 1250,-3159 1816,-5474 3133,-9237 1642,-4673 1494,-5188 6748,-5626 -1460,-5476 -6595,-9132 -10695,-12815 -2886,-2588 -4376,-3185 -5390,-6983 4935,1151 6937,3711 9932,7394 2441,3002 6464,7690 7394,11167 3994,-90 9189,-1405 12328,-2568l3395 -1684c7701,-4987 -738,1146 14189,-2943 5820,-1596 6735,-747 7205,-6417 1228,1866 1238,-2828 1238,3713 3794,-315 5948,-1172 8662,-2475 -1225,-4588 -1251,-1599 -2476,-6187 5650,1315 4438,256 4952,4949 12556,0 21089,-7151 33407,-7425 -1422,6112 1219,5839 -219,10023l-1855 5573c-1006,4065 -1638,3389 -1638,9151 3595,2409 1660,2507 6185,3713 0,-6947 1475,-12416 2482,-18557 439,-2701 645,-6287 1158,-8736 940,-4499 -1204,-3426 5025,-4877 -2332,4852 -4234,34669 -7429,41985 -1040,2386 -319,594 -1086,2650l-8786 28874c-56,144 -153,502 -208,649l-1929 4152c-108,200 -332,516 -434,721l-1395 4348c-74,150 -267,449 -345,600l-4580 10894c-2003,3726 1334,2711 -1031,7827 -3850,1364 -2756,-4412 -7950,6895 -5133,11180 -15659,22429 -21748,33936 2406,3597 2507,1662 3714,6186 -2669,-1785 -3641,-2827 -7424,-3710 -3813,5692 -8832,9824 -13089,15375l-10474 10554c-186,179 -459,421 -641,599l-19616 18068c-111,85 -410,267 -524,342l-3701 2213c-2971,2077 -4838,3734 -7882,5810l-34809 20873c-6309,3155 -13513,6448 -19548,8910 -12630,5161 -14248,1722 -13454,11294l-3710 -4948c-4854,1130 -8123,2671 -13156,4166 -14404,4280 -27840,6131 -43542,8429 -20079,2942 -43399,2215 -63432,-114 -26643,-3103 -46635,-8908 -69686,-16930 -10764,-3745 -25438,-14519 -35385,-15349l0 2475zm295730 -210350c-2628,-704 -1434,-193 -3272,-1677l-6626 -8221c5261,1403 6385,4652 9898,9898zm-407090 -32172c5319,1421 1961,2112 6544,2996 2179,419 4545,-521 8302,-521 728,8730 4952,14459 4952,24747 0,6722 -1698,703 -495,7994l130 4062c-1930,8736 -4587,44347 -4587,54761 5551,-1294 17922,-4098 22275,-6188 1335,2785 4857,16900 4948,21037l-33407 8661 -2474 3711c-1433,-3548 1412,-2667 -4059,-1857l-15740 4332c0,-7735 -650,-5808 -1958,-11651 -1935,-8650 979,-26305 726,-36700 -30,-1263 -329,-5847 -283,-6562 93,-1375 238,-1319 458,-2185 2621,-10287 356,-14408 517,-19966 135,-4665 -205,474 1034,-4026 1128,-4093 744,-7145 744,-11711 -6370,1483 -14321,4798 -21036,4949 -493,-5950 -3649,-10844 -4184,-17073 -362,-4276 -762,-3221 4765,-4535l10707 -3550c186,-46 541,-99 731,-134l12015 -3205c167,-53 508,-146 677,-189l4177 -568c3829,-691 4514,-1371 8445,-1872l-3924 -4757zm82903 -16086c319,3833 1649,8377 2788,12158l2163 8878c-6225,0 -7137,1108 -11514,2097 -12541,2839 -8230,2879 -3335,23887 6260,-1457 12978,-3361 19798,-4950 175,7843 3711,10660 3711,19799 -4496,1046 -15094,3286 -18561,4949 3299,6871 4286,18209 7423,24747 1394,-668 10025,-3412 11849,-3879 3466,-878 5332,136 10425,-2306 561,6738 4327,13547 4951,21033 -17631,4107 -34665,9579 -51972,13609l-12659 -42342c-368,-1786 541,-3059 -469,-7531 -1042,-4621 -1295,-1964 -1719,-7043 -6038,4424 -5481,16721 -12374,18561 440,-5295 1425,-5347 3641,-8736l1402 -2308c8353,-15595 6283,-9437 3112,-21857l-9391 -36391 26755 -6670c2402,-607 5044,-1459 6593,-1925l17383 -3780zm310578 32171c-3801,-2546 -4846,-5906 -7642,-9680 -3921,-5289 -5465,-2630 -7210,-10116 3524,1273 8656,4833 9206,7872 1466,8070 3771,4911 5646,11924zm-146010 -74241c0,-1144 -75,-2482 108,-3605 424,-2554 285,-1252 1130,-2581 2846,12212 8645,7134 14849,17321 5853,9616 11234,35506 14700,47171 11597,39058 -779,27160 4570,42388 2019,5757 4239,9947 4239,16853 -5625,-3763 -2400,-3370 -5756,-9169 -3501,-6051 -1668,484 -1668,-9388 -5255,1403 -10904,9081 -14278,11030 -1800,1036 -22986,5511 -31197,3595 -21738,-5074 -21784,-24894 -26126,-39540 -3876,-13068 -13464,-39672 -9223,-52163 4718,-13904 22885,-23150 41228,-23150 4660,0 2341,816 7424,1238zm-107648 23509c5510,3692 3252,2173 10922,1080 3712,-529 5496,-561 10856,603l7478 3343c1381,1291 614,701 1150,1497l4698 7863c14559,29323 -4141,32928 -6646,36346 4206,0 6801,-479 10315,821 1245,462 5255,3288 5910,3990 4790,5158 13338,39968 13471,45923 -7319,3510 -19219,4177 -25984,7422 -3333,-6942 -8386,-29868 -11054,-39676 -1290,-4740 -2884,-7343 -8744,-7343 -6447,0 -2450,7062 -1250,11129 3107,10547 7871,33407 11150,39601 -6219,0 -5542,1115 -11138,1238l0 4948c-1228,-1863 -1238,2832 -1238,-3711 -7215,603 -10655,3711 -18560,3711l-15093 -56670c-995,-2812 -3751,-5200 -3357,-6860 973,-4097 576,-3709 -735,-8758 -1295,-5005 -1881,-7589 -3084,-11850 -1468,-5204 -4281,-18296 -6189,-22271l25466 -6860c1083,-455 3395,-1739 3468,-1760l8188 -42 0 -3714zm-85379 3714c2064,-3082 3378,-5107 7423,-6188 -2325,4848 -341,5596 -7423,6188zm263556 -49496c14084,-1169 38902,-11386 50731,-12372 421,5048 3662,14276 4950,19799 -3655,1751 -19798,4511 -19798,7424 0,4817 3351,16465 4948,19798 8164,-683 10086,-3713 19798,-3713 158,7133 3150,11801 3714,18560 -1969,944 -15852,4723 -18560,4948 916,11041 10012,13816 14846,21036 -7205,-1679 -5060,-1711 -9898,-4951 110,4963 5752,26212 7424,29698l-29695 7424 -22018 -80682c-1360,-4963 -2047,-8934 -3646,-13681 -1441,-4279 -2681,-8104 -2796,-13288zm68056 -17320c8198,-3935 28230,-6768 35978,-9884l2234 -1037c172,-66 502,-193 676,-246l10606 -2445c3570,7439 1002,11527 4931,12210 1413,248 -1045,-1392 1294,528 1003,821 1649,2175 2435,3347 -5924,-1256 -4054,-1827 -2474,4951 -5052,418 -14280,3663 -19799,4947 0,5922 2639,16219 4951,21036 7642,-635 9391,-3483 19795,-3712 168,7433 3535,10583 3714,18561 -4535,2177 -8309,2056 -12577,3672 -10277,3893 7075,3956 -4746,4988 645,7747 4304,13288 4951,21036 3866,-88 20758,-4868 23509,-6188 959,11536 7604,18662 3790,23074 -2596,3003 539,348 -1340,413l-1292 -256c-5450,-350 -10524,1713 -15571,3192 -3701,1082 -17474,3613 -19675,6583l-428 1084c-22,-143 -37,389 -130,556 -6459,-3203 -3994,-185 -12374,0 -2434,-5070 -1967,-9491 -4191,-14416 -1133,-2504 -2921,-4380 -3118,-5005 -38,-117 -111,-448 -126,-565 -257,-1904 858,-707 603,-4232 -207,-2838 -21035,-75051 -21626,-82192zm119992 12149c3609,-877 5743,-243 9927,-2252 2731,5692 3601,14405 6189,19798 -6619,1543 -13179,3407 -19798,4948 2904,6054 4346,18335 7424,24749 4079,-949 7787,-2418 11472,-3378l5643 -1783c2544,-812 517,-922 5159,-1027l4086 15699c684,2693 773,1400 861,5337 -6746,561 -13048,4387 -19798,4949l0 3712c-3816,-2555 -2913,-2701 -7647,-1646l-24523 6594c-1494,-6411 -4948,-15484 -4948,-22271 -6359,-143 -3553,1119 -6138,-2626l4900 1388c-1619,-6949 -3549,-14215 -5734,-21486 -1378,-4563 -2020,-5701 -3045,-10566 -3816,-18118 -8988,-31501 -13492,-50849 8730,-4191 29686,-7989 40687,-11380l1761 -628c232,-79 568,-231 792,-301 1087,-347 -588,-81 2217,-592 1056,-193 2845,-148 5274,-712 123,5536 3623,15351 4947,21037 -8495,0 -11562,3527 -19798,3710 0,10055 4281,14207 4951,22274 5840,-485 5033,-1824 8631,-2698zm-92772 -25761c-1438,-1055 -8761,-9438 -9900,-11138 4085,1091 816,-203 4102,2087 6261,4360 5675,3549 5798,9051zm-272218 -28460c6696,1560 6374,-203 11147,-3696 12630,-9239 11646,-6965 22006,-12644 38518,-21117 97179,-22482 137582,-4676 7350,3239 37897,18553 43328,25967l-42069 11133c1673,2501 3274,4927 4948,7427 -4204,-1122 -4092,-3057 -6186,-6189 -5269,119 -14021,2742 -19275,4234l-55153 14369 1423 7385c-2217,-2553 -2114,-1865 -2475,-6189 -9897,2304 -19821,4973 -29698,7421 -13186,3268 -77867,22108 -85374,22277 -816,9343 1581,1204 -5003,2327l-18829 5337c-599,175 -5202,926 -8341,996 3031,-4526 997,-1021 2610,-6050 2464,-7670 17672,-31784 22817,-37818 165,-195 404,-468 570,-667 9569,-11405 20846,-20472 21024,-28468 -15113,10118 -31929,36697 -35884,39596 1356,-5821 10937,-17441 15140,-21980l11642 -11869c1733,-1674 440,-26 1958,-1755 3016,-3421 2051,-54 2193,-6468 2528,2670 1851,3107 7802,-2048 2533,-2195 5118,-4531 8285,-5376 -2115,3155 -2122,3864 -6188,4951l0 2473zm-121260 -42070c872,-3647 1137,-2197 0,-4948 6470,1505 2112,544 8662,0 -1115,969 312,-68 -1982,1729 -191,148 -2145,1545 -2159,1553 -2168,1271 -2014,1082 -4521,1666zm168281 -94038c4055,1677 15959,-2475 22271,-2475 1578,-3285 1129,-1323 1238,-6186l1238 4948c9255,0 10024,-960 19033,-1960l62121 3710c6769,1111 14225,2848 20359,4441l8597 1921c2029,481 122,-20 2297,727l6509 2157c18709,5782 35801,13816 52674,22816 16521,8811 31361,20449 45504,32450 5754,4878 -4446,-3817 1359,1129l8617 7441c5447,6749 12640,12096 18110,19038l5626 5688c1042,845 573,124 1976,2768 454,856 5873,7053 7060,11511 -6492,-145 -4297,-520 -7965,-5645l-11374 -13372c-236,-273 -902,-1065 -1136,-1340 -165,-196 -393,-481 -558,-677l-4019 -4646c-2686,-2869 -4424,-4163 -7107,-6502l-12702 -12045c-2796,-2847 -3214,-3323 -6559,-5815 -30243,-22537 -62188,-41749 -99524,-51432 -7360,-1911 -15660,-5405 -23532,-5127 -155,6 -504,83 -645,90l-12862 -2468c-57113,-7705 -67513,2566 -92895,2566 0,11104 2574,6544 14483,4585 53898,-8867 112898,1104 162049,25522l31098 18396c19666,13052 36545,29385 51940,47048 3497,4015 8841,8346 10174,13337 -22599,5264 -42836,12374 -65323,17582l-22530 5927c-2810,-1883 -6641,-5267 -9614,-7709 -12398,-10209 -26630,-18974 -41640,-25175 -12301,-5088 -23749,-8965 -36725,-11534 -28583,-5654 -60545,-4880 -88261,3050 -4883,1397 -7755,1987 -12532,3553 -5600,1836 -7814,1343 -7968,8117 -3941,-2887 -929,-3052 -4276,-2711 -7501,764 -14457,9143 -21263,11821l-24825 17240c-17964,15044 -46016,52483 -51955,76540 -1318,5344 -3739,8234 -9291,9462 -6245,1379 -8512,2191 -13502,3816 -4436,1448 -7801,2620 -13471,2620 760,3254 1126,3636 2473,6186 -2581,-935 -3589,-2922 -4948,-4948 -1801,418 -4991,1098 -6872,1886l-46334 11722c-165,-7492 801,-3624 -2472,-4948l0 -2474c4867,-1298 4501,-2771 5002,-8607 714,-8263 2671,-14635 5033,-22189 1016,-3247 1932,-6404 3123,-10487l7341 -19884c2986,-7062 5201,-12028 8379,-18843l32119 -49544c2669,-3134 3584,-3705 6339,-7271 2190,-2828 3533,-3984 5972,-6401 26802,-26561 51246,-46555 87031,-61453l29730 -11101c4938,-1648 20976,-2872 19219,-8942 -81,-284 -344,-915 -568,-1161 -1670,-1810 -881,-1480 -5457,-453 -33249,7459 -64496,22948 -92137,41736 -11466,7795 -23165,16694 -32876,26517 -2494,2519 -5380,4925 -7546,7405 -5939,6797 1926,4340 -2854,7130 -3455,2015 -183,-4346 -13695,12100 -4608,5607 -8443,10886 -12585,17112 -4282,6432 -7305,11659 -11341,18358 -2098,3488 -3992,6141 -5483,9362 -1536,3317 -2286,5857 -4112,9501 -10074,20130 -18011,44012 -21889,67203 -1217,7306 73,19052 -7411,21048 411,-4924 585,-7619 1154,-11227 525,-3346 862,-3342 1074,-6341l747 -6810c3001,-7574 3492,-15502 5685,-23005l2918 -7849c3965,-13431 10030,-29133 16880,-41283 1892,-3359 3051,-6137 5191,-9659l30312 -43930c2724,-3228 3152,-4219 6259,-7351l21020 -21727c2711,-1758 5187,-4096 7911,-6261 22609,-17970 47057,-32584 73721,-43829l42891 -14028c125,-360 528,-288 777,-458zm0 0c-1087,-1252 -104,163 -1578,-2132l-921 -1559c-713,-1267 -843,-1670 -1656,-3291 -1636,-3278 -2441,-4307 -3272,-7867 -6412,142 -18330,4308 -23790,5904 -17595,5140 -43935,17426 -59653,26965 -22187,13466 -49101,33403 -65823,52960l-2248 2701c-3337,3990 -12188,12691 -13332,16559 -1487,5048 537,1105 -4902,6008 -3609,3249 -10907,15783 -14128,20550 -8389,12425 -9430,17077 -15169,28139 -4955,9538 -3370,10474 -5698,14088 -7941,12330 -17979,47009 -17979,59986 7386,1719 8215,5155 9899,12373 -6604,-1761 -4529,-5660 -11136,-7424l-1630 9508c-2351,12741 -390,9473 1630,10290 -1988,5991 417,243 -2329,2949 -5616,5530 -2670,1677 -13170,5061 -7094,2287 -14018,2869 -17855,6892 -15153,15903 4601,44629 6134,63052 6510,-1736 2736,-2218 4948,-1238 -1928,2633 -94,1607 -3713,2475 127,5778 386,7441 4951,8661 -4306,4086 -2483,3701 1491,18306 1650,6068 3694,12262 5444,19301 3461,13928 6962,26027 10393,39104 3236,12326 4798,28745 13947,35631 3676,2763 12237,3188 18251,1560l19766 -5014c8152,12176 7868,10551 15439,19205 1334,1531 589,698 1580,2135 20438,29604 51553,49652 81481,68381 11661,7297 3861,-3324 7909,-11768l0 16085c12285,6499 26490,12360 40069,16852 50747,16789 90582,21064 147319,12155 40845,-6417 95383,-29120 127782,-55350 3006,-2435 3976,-3641 7425,-6183 14688,-10817 10770,-8318 10255,-14493 2945,1972 1289,1498 4949,2474 4264,-6369 11420,-11301 17629,-18256l7902 -10657c1590,-1803 2697,-3046 4143,-4517l11907 -15313c10858,-16348 21039,-33789 28593,-51839l7686 -19533c2991,-6431 4470,-15424 6270,-20952 4725,-14527 8671,-36450 8671,-51959 10763,-5696 40804,-4402 36718,-27938 -2280,-13149 -4267,-3847 -3307,-15369 -4842,-2324 -3192,376 -6140,-3864l4902 1388 -10280 -36741c-3646,-9856 -1142,-5692 -2689,-12159 -604,-2525 -1213,-3119 -2144,-6516 -4460,-16221 -21835,-84612 -24146,-88455 -1711,-2842 -5349,-6177 -8210,-7878 -10142,-6019 -23461,4504 -36671,4504 -1457,-6251 -15649,-22303 -20710,-27547 -2417,-2506 -3588,-3713 -6026,-6350l-30012 -28146c-21018,-16768 -41679,-29383 -66162,-40245l-43139 -15017c-30353,-7495 -51275,-10141 -83897,-10141l0 3711c-4262,-4903 -2758,-2998 -11129,-2570 -16589,853 -30274,2668 -45787,6282 543,6561 4401,9526 4948,16086z"/>
   <path class="fil0" d="M342193 569182c14009,0 26426,-2100 38880,-4428 41973,-7844 86209,-27329 119115,-54114l42467 -41675c6306,-8127 11595,-15615 17562,-24506 5012,-7469 20689,-29257 13165,-30972 -5110,-1163 -3033,803 -3261,996 -716,606 -3386,6309 -3967,7451l-7801 13238c-6629,10684 -19303,28781 -27139,37202l-23462 23918 -47137 32929c-1980,1085 -2185,1288 -3994,2193l-9771 5077c-7794,3507 -22993,11035 -30417,11655l0 4948c-8047,-5387 -16240,3712 -32170,3712 -664,7603 -652,2254 -1992,2178 -11454,-626 -8157,1087 -15711,2027 -3598,449 -675,-348 -5360,118 -21295,2119 -9371,1863 -38805,1863 -14238,0 -24776,-2683 -37122,-3710 424,5095 2883,3583 -1237,4948 -161,-7246 -1944,-5493 -9116,-6968l-36489 -10530c-7102,-2643 -15533,-5972 -22772,-9400 -5372,-2544 -16253,-9184 -20710,-10219l0 7422c4405,1025 3416,1314 6724,3173 9855,5532 37390,16092 48361,19693 33664,11051 57886,11781 92159,11781z"/>
   <path class="fil0" d="M199897 105171c-4257,-1134 -4499,-3683 -8662,-9895 3621,-4421 11198,4413 8662,9895zm-30935 -9895c524,6271 10797,16545 17202,27339l13780 18069c59,53 280,259 323,316l2106 6243c6725,-561 11249,-7040 17323,-8660 -1279,-5485 -4595,-8409 -7421,-12380 -1446,-2032 -2454,-3648 -4040,-5944 -5622,-8135 -2845,-11440 6885,1859l8286 12751c2214,-1480 8687,-5247 10445,-6943 6319,-6096 91,-10350 -3706,-15885 -4746,-6924 -5721,-10580 -15401,-10580 3360,-6349 4269,-8824 -5018,-18495l-5897 -4047c-2622,-824 -4360,-663 -8311,744 -10023,3577 -19952,13849 -26556,15613z"/>
   <path class="fil0" d="M269341 91408c1105,3343 2216,5253 2324,10053 -4916,-411 -3246,974 -5240,-3423l-5384 -16889c-4330,-15350 -7434,-16717 -1752,-20523 3939,7445 7095,21826 10052,30782zm-31088 -25830c0,7810 429,9203 2630,15934 7776,23823 6842,32324 25831,32324 9766,0 23511,-8314 23511,-17325 0,-3584 -1486,-10005 -2313,-12535l-9646 -27475c-5873,-10027 -18666,-8744 -28142,-4478 -1971,890 -11871,4184 -11871,13555z"/>
   <path class="fil0" d="M316660 500578c3981,-1136 7522,10917 -1688,11683 -113,-5062 -743,-5381 -2476,-8660 3713,-1386 1432,-2241 4164,-3023zm-20250 -13063c1090,2439 -2326,47825 -3298,53838 -1114,6892 -1224,7862 5633,8172 15008,683 14989,5738 14989,-26126 8145,677 3712,3651 3712,27223l17324 0c643,-2777 1238,-2845 1238,-6187 0,-31277 124,-17368 -6189,-25987 13166,-1095 8343,-22213 2816,-26325 -4855,-3613 -27065,-4608 -36225,-4608z"/>
   <path class="fil0" d="M366939 503601c4886,0 5022,388 8662,1237 0,-5657 -1872,-7238 0,-11137 5102,1364 4224,3542 5911,9033l1325 7323c1388,8291 5324,17757 3901,24478 -5129,-1369 -3667,-2204 -6437,-13363 -992,-3994 -3079,-10476 -3500,-14885l-9862 -2686zm-6184 -1238l-2434 -2518c-1266,-937 -266,-592 -2518,-1196l5644 27681c2238,9195 4776,19343 15392,19343 25960,0 20655,-6955 24754,-9206 110,-60 487,-137 604,-197 3177,-1579 198,3192 3145,-2841 3669,-7519 -6908,-42401 -9146,-45476 -4529,-6223 -11659,-5385 -18119,-5385 -7995,0 -20184,4599 -21036,14846 4459,1190 3310,113 3714,4949z"/>
   <path class="fil0" d="M422619 126207c5656,1509 21745,15527 28460,16086 1310,-4902 3641,-4993 4950,-9896 -2389,-3568 -6017,-5373 -9898,-7428 1091,-4694 3794,-7561 6186,-11133 3862,2585 12258,11476 16087,-4951 -2874,-1925 -4875,-3939 -8664,-4951 1290,-5539 2464,-3974 3713,-8658 8785,194 5987,4314 13611,4947 1466,-6283 3484,-4852 4950,-11137 -4721,-3159 -22802,-15716 -27221,-16084 -1692,7980 540,22 -6929,11630 -4527,7030 -24766,35829 -25245,41575z"/>
   <path class="fil0" d="M379315 108885c8827,2058 26195,9503 30933,9899l3890 -12315c-3075,-1448 -8634,-3445 -12552,-3770 501,-6036 2556,-7406 3713,-12375 6457,1506 13482,7741 14847,-8662 -2648,-1269 -9898,-1866 -9898,-4948 0,-5367 1969,-3820 2474,-9898 4225,2234 7071,3713 12373,4948l3890 -12314c-4279,-2027 -26234,-9850 -31113,-9957 -834,10046 -17749,49658 -18557,59392z"/>
   <path class="fil0" d="M147929 137345c2462,-4656 4162,-6147 7424,-9900 -3208,-4788 -3226,-3014 -6162,-5336l-3738 -3325c-4450,3263 -586,661 -2470,3583 -414,638 -12595,12863 -17325,19926l7305 7541c189,173 449,428 639,600l20972 17388c270,235 1061,902 1337,1134l10708 9088c3313,2665 1691,2681 6056,3846 5187,-3473 6837,-6796 10862,-11413 2989,-3429 7947,-8771 10171,-12096 -3010,-4503 -5502,-5719 -9896,-8665 -2887,2115 -6510,6467 -7423,9900 -3212,-1698 -9184,-5991 -11138,-8662 3015,-3177 6085,-4890 7424,-9899 -5748,-1532 -4970,-3482 -8662,-6186 -3202,2144 -6285,4397 -7422,8662 -2872,-1921 -5614,-4145 -8662,-6186z"/>
   <path class="fil0" d="M488200 429358c2901,-4329 4212,-6258 7424,-7424l0 -3711c-7183,-1919 -3255,-5529 -11138,-6185 -1394,5231 -14065,15562 -18560,22271 3707,7000 6797,6071 14993,14705l21033 18596c6308,6230 5228,2738 8086,5762 1387,1467 -4465,-266 1671,1771 4032,-2700 13813,-15414 18135,-20226 171,-191 451,-426 614,-624 2600,-3170 1936,-940 2287,-5137 -4808,-1283 -4615,-3475 -8661,-6186 -7186,3801 -2769,3886 -9900,8662 -1883,-1260 -7431,-5745 -8947,-7709l7713 -7138c-2323,-3465 -5337,-7445 -9902,-8665 -3085,2068 -4158,4394 -6186,7427 -4262,-1139 -6197,-3352 -8662,-6189z"/>
   <path class="fil0" d="M279087 496177c2083,-4339 193,-4974 1158,-6590 1692,-2827 2087,-183 2553,-5784l-14854 -4942c-4681,-1872 -9596,-3735 -14841,-4959l-17298 52674c-1257,3116 -1511,1238 -2500,5483l15606 5431c4937,1738 11216,4024 16568,4469 480,-5805 2329,-5933 2473,-12374 -6034,-501 -7404,-2553 -12377,-3710 2157,-4069 2552,-6147 3714,-11138 5805,481 5934,2331 12376,2473 400,-4805 1929,-7765 3710,-11134 -3544,-826 -8194,-2300 -11134,-3713 5597,-11665 -3163,-10384 14846,-6186z"/>
   <path class="fil0" d="M494389 399663l27291 14860c5555,3107 3815,351 8535,3744l18616 9853 13612 -27219c-4761,-3186 -4990,-6913 -11138,-7425 -989,4248 -3091,7625 -4948,11135 -5316,-1238 -6554,-3725 -11136,-4948 1856,-3512 3958,-6888 4948,-11137l-11138 -4951 -4988 9882c-2890,-1532 -5005,-2851 -8621,-3693 469,-5622 3480,-6074 4951,-12375 -5221,-2761 -5964,-1324 -7423,-4947l-4952 0c-768,3297 -11294,22842 -13609,27221z"/>
   <path class="fil0" d="M105859 201688c1870,-3533 3929,-5524 4949,-9900 4782,1276 6939,5075 10210,8351l18755 19604 10170 5223 15308 -30705c-3721,-2491 -7345,-5016 -12374,-6185l-4948 11136c-3778,-2530 -6114,-5689 -9567,-8995 -4880,-4669 -4810,-2455 -8616,-8709 -5737,-9432 -10938,-10819 -20176,-15704 -2315,4375 -14568,27555 -14848,30933 6014,1401 6473,2480 11137,4951z"/>
   <path class="fil0" d="M209796 519686c1847,-5101 4490,-3849 6186,-11135 -3257,-871 -8153,-3806 -9898,-6188 6770,-9238 31450,-18042 35883,-34647 -3856,-1028 -23803,-14202 -28460,-17322l-6187 11138c1745,2379 6641,5316 9900,6184 -6804,9289 -34205,22134 -37120,34647 4097,2743 25219,16951 29696,17323z"/>
   <path class="fil0" d="M342193 47017c-1969,977 2275,1267 -3712,0 0,13865 -1526,18049 -2289,27703 -430,5475 -909,4522 3526,5705 -1514,1145 1390,805 -3710,1237l-1238 21037c8246,0 6293,-1193 10297,-286 3968,899 1611,1521 8261,1521 163,-7205 2475,-18615 2475,-25984 5594,125 4918,1237 11136,1237l1238 -12371c-4773,-399 -4872,-1238 -11136,-1238 0,-6219 1112,-5541 1238,-11137 3627,2036 7303,1237 13609,1237 0,-17811 859,-12269 -14136,-14324 -5033,-685 -13804,-1761 -18034,-1761 110,4935 572,4583 2475,7424z"/>
   <path class="fil0" d="M454793 460294c3842,-2035 5060,-3990 8660,-4949 -441,-5299 -4002,-8847 -7424,-11138 -7744,4097 -18014,14289 -24747,16087l0 4948c3194,1158 3464,2523 5481,5658l29163 40125c6141,-1640 9602,-7262 14850,-8662 -170,-7607 -9468,-16085 -13612,-22271 3052,-2045 5793,-4267 8665,-6190 -1311,-4902 -3640,-4993 -4952,-9896 -5530,459 -7438,3710 -11137,6186 -2087,-3118 -3943,-5584 -4947,-9898z"/>
   <path class="fil0" d="M361991 410800c-5719,-128 -12149,-2507 -17324,-3713 566,6793 4665,9550 6188,16085 -2698,4032 -6181,9508 -7425,14851 6983,-582 11780,-830 16087,-3714l4792 7579c2499,3031 3496,4942 7579,6030l1938 -12913c2045,-5861 6451,-4630 15386,-9358 -2078,-3101 -10183,-8273 -14849,-8661l0 -16085c-4555,378 -4669,1065 -9731,6351 -3210,3352 -965,-1092 -2641,3548z"/>
   <path class="fil0" d="M270427 168278c4602,1071 9658,4676 14846,7422 0,7347 1119,10612 1238,16088 5881,-1571 6690,-9413 15647,-10307 5948,-591 9131,4873 10902,1175 2688,-5607 -7998,-9285 -792,-19508l3501 -5304c2820,-6123 -4787,-2843 -15647,-1942l-11135 -12371c-2991,6236 -543,13361 -4200,16834 -2779,2640 -11116,3484 -14360,7913z"/>
   <path class="fil0" d="M329819 336558c3776,0 4994,-1187 7424,-2476 -471,-5652 -2641,-13660 -4234,-19274 -3018,-10641 -10640,-49772 -18037,-56204 -7939,1850 -7106,3478 -3731,17341l10890 41080c965,3764 4808,19533 7688,19533z"/>
   <path class="fil0" d="M332294 470192c17726,0 36794,-2986 50210,-7945 9533,-3523 34468,-12018 38877,-18040 -3301,-4755 -2939,-3729 -7917,-624 -10377,6473 -10006,5100 -19337,9251 -16225,7219 -37477,12408 -58119,12408 -10581,0 -32352,-237 -39598,-3710l0 6184c11398,0 20267,2476 35884,2476z"/>
   <path class="fil0" d="M261765 207874c-862,-3698 -3655,-7710 -3329,-10984 390,-3972 3237,-4349 4564,-10052 -6793,151 -8959,3332 -13767,-1045l-2296 -2689c-2087,-2055 -110,-1485 -3732,-2452 -1298,2704 -1684,7740 -2533,10961l-8605 2648 0 3714c2511,584 3260,697 5357,2069 5101,3339 4189,8596 3308,12779 7681,-640 4457,-4338 10220,-5818 2360,-610 6130,764 10813,869z"/>
   <path class="fil0" d="M334770 167040c2378,3553 6388,5073 9897,7423l0 9902c7097,-1657 4570,-3077 8520,-5189 4180,-2235 6305,238 12515,238 -7721,-16095 -481,-9147 -2475,-18560 -6998,-3357 -4891,2477 -12271,-6289 -2186,-2596 -883,-1648 -3815,-3611 -3840,16487 294,9384 -12371,16086z"/>
   <path class="fil0" d="M305072 413273c-3610,0 -6416,-1665 -9898,-2473 688,8284 4420,9965 6185,12372 -4860,1297 -6261,4912 -7423,9900 18921,-4408 10933,3819 19798,6186 2074,-8911 162,-12002 12371,-14848l0 -2476c-3412,-794 -2785,-596 -4948,-2473 -6650,2683 5319,-3904 -1450,1251 -2135,1623 -2910,3854 -3472,-2269 -585,-6323 39,-7000 -1263,-12594 -2087,1532 253,-257 -1920,1795 -1270,1203 -5949,5629 -7980,5629z"/>
   <path class="fil0" d="M409010 389764c-175,-252 -332,-1024 -403,-831 -490,1257 2088,-2657 -9494,-5358l5237 18272c4261,6921 158,-2132 9816,7509 3354,3350 -1156,993 3505,2682 1736,-3621 837,-7393 3225,-10388 1555,-1946 6518,-3847 9150,-4463l0 -2474c-13621,-3636 -8922,-8887 -10264,-13435 -1017,-3445 -2438,-3505 -8808,4260 -2455,2991 -1261,-2210 -1964,4226z"/>
   <path class="fil0" d="M296410 477616c-1312,-15777 -6879,-7161 -35010,-19433 -4553,-1986 -7134,-4178 -12009,-5313 -122,5436 -837,3853 -1238,8662 4529,2395 9424,4459 14692,6342 15933,5699 12327,6064 13767,2318l2475 3710c4809,403 3226,1119 8662,1241 433,-5103 93,-2199 1238,-3713l40 4760 7383 1426z"/>
   <path class="fil0" d="M576052 408325l-3711 0 4674 5223c4781,-8789 7906,-16706 11412,-26257 2941,-8016 6679,-19961 8661,-28463l-5973 -5176c-424,8228 -8811,32739 -12573,41086 -4258,9458 -2940,8144 -2490,13587z"/>
   <path class="fil0" d="M219696 287064c1792,7684 4380,18403 7422,24747 11061,-2575 7756,-10118 4388,-20282 -1618,-4886 -5665,-6853 -11810,-4465z"/>
   <path class="fil0" d="M251006 447224c-1375,206 -621,149 -1615,694 2220,4225 -2005,1333 4019,4646 5454,2996 34021,13374 40526,13915 -121,-5454 1904,-4683 -9897,-7426l-27009 -10214c-2759,-1290 -3285,-2020 -6024,-1615z"/>
   <path class="fil0" d="M397872 405849c2822,-656 2847,-958 6189,-1238 -2173,-3238 -626,-2554 -4948,-3710 -869,1749 -1241,2055 -1241,4948z"/>
  </g>
 </g>
</svg>
